<svg width="318" height="79" viewBox="0 0 318 79" fill="none" xmlns="http://www.w3.org/2000/svg">
<g filter="url(#filter0_d)">
<path d="M50.0312 69H41.4062V37.4531H13.9375V69H5.35938V0.75H13.9375V30.0938H41.4062V0.75H50.0312V69ZM97.6094 37.4531H73.4688V61.6406H101.594V69H64.8906V0.75H101.125V8.15625H73.4688V30.0938H97.6094V37.4531ZM144.438 51.1875H121.375L116.078 69H107.266L129.25 0.75H136.609L158.641 69H149.828L144.438 51.1875ZM123.625 43.7812H142.234L132.906 12.75L123.625 43.7812ZM167.922 69V0.75H184.188C192.156 0.75 198.344 3.25 202.75 8.25C207.156 13.2188 209.359 20.2188 209.359 29.25V40.6875C209.359 49.7188 207.125 56.7031 202.656 61.6406C198.188 66.5469 191.703 69 183.203 69H167.922ZM176.5 8.15625V61.6406H183.391C189.422 61.6406 193.828 59.9219 196.609 56.4844C199.391 53.0156 200.812 47.8906 200.875 41.1094V29.0156C200.875 21.8281 199.484 16.5625 196.703 13.2188C193.953 9.84375 189.781 8.15625 184.188 8.15625H176.5ZM255.484 37.4531H231.344V61.6406H259.469V69H222.766V0.75H259V8.15625H231.344V30.0938H255.484V37.4531ZM291.109 41.3906H279.109V69H270.484V0.75H289.609C296.297 0.75 301.359 2.5 304.797 6C308.234 9.46875 309.953 14.5625 309.953 21.2812C309.953 25.5 309.016 29.1875 307.141 32.3438C305.297 35.4688 302.672 37.8281 299.266 39.4219L312.484 68.4375V69H303.25L291.109 41.3906ZM279.109 34.0312H289.516C293.109 34.0312 295.969 32.875 298.094 30.5625C300.25 28.25 301.328 25.1562 301.328 21.2812C301.328 12.5312 297.359 8.15625 289.422 8.15625H279.109V34.0312Z" fill="#90FF7E"/>
</g>
<defs>
<filter id="filter0_d" x="0.359375" y="0.75" width="317.125" height="78.25" filterUnits="userSpaceOnUse" color-interpolation-filters="sRGB">
<feFlood flood-opacity="0" result="BackgroundImageFix"/>
<feColorMatrix in="SourceAlpha" type="matrix" values="0 0 0 0 0 0 0 0 0 0 0 0 0 0 0 0 0 0 127 0"/>
<feOffset dy="5"/>
<feGaussianBlur stdDeviation="2.5"/>
<feColorMatrix type="matrix" values="0 0 0 0 0 0 0 0 0 0 0 0 0 0 0 0 0 0 0.45 0"/>
<feBlend mode="normal" in2="BackgroundImageFix" result="effect1_dropShadow"/>
<feBlend mode="normal" in="SourceGraphic" in2="effect1_dropShadow" result="shape"/>
</filter>
</defs>
</svg>
